# xmcd
#
# Track frame offsets:
#	150
#	16006
#	34221
#	51223
#	62269
#	79842
#	99875
#	119091
#	136722
#	156483
#	174283
#	190788
#	209228
#	222931
#	235004
#	256687
#	275071
#	294142
#
# Disc length: 4160 seconds
#
# Revision: 4
# Processed by: cddbd v1.5.1PL0 Copyright (c) Steve Scherf et al.
# Submitted via: EasyCDDAExtractor 8.2.3.1
#
DISCID=f7103e12
DTITLE=G-Unit - Beg For Mercy
DYEAR=2003
DGENRE=Rap
TTITLE0=G-Unit
TTITLE1=Poppin' Them Thangs
TTITLE2=My Buddy
TTITLE3=Im So Hood
TTITLE4=Stunt 101
TTITLE5=Wanna Get To Know You
TTITLE6=Groupie Love
TTITLE7=Betta Ask Somebody
TTITLE8=Footprints
TTITLE9=Eye For Eye
TTITLE10=Smile
TTITLE11=Baby U Got
TTITLE12=Salute U
TTITLE13=Beg For Mercy
TTITLE14=G´D Up
TTITLE15=Lay You Down
TTITLE16=Gangsta Shit
TTITLE17=I Smell Pussy
EXTD=ID3G:  15 YEAR: 2003
EXTT0=
EXTT1=
EXTT2=
EXTT3=
EXTT4=
EXTT5=
EXTT6=
EXTT7=
EXTT8=
EXTT9=
EXTT10=
EXTT11=
EXTT12=
EXTT13=
EXTT14=
EXTT15=
EXTT16=
EXTT17=
PLAYORDER=
